<?xml version="1.0" encoding="utf-8"?>
<!-- Svg Vector Icons : http://www.sfont.cn -->
<!DOCTYPE svg PUBLIC "-//W3C//DTD SVG 1.1//EN" "http://www.w3.org/Graphics/SVG/1.1/DTD/svg11.dtd">
<svg version="1.1" xmlns="http://www.w3.org/2000/svg" xmlns:xlink="http://www.w3.org/1999/xlink" x="0px" y="0px" viewBox="0 0 1000 1000" enable-background="new 0 0 1000 1000" xml:space="preserve">
<metadata> Svg Vector Icons : http://www.sfont.cn </metadata>
<g><path d="M500,10C229.4,10,10,229.4,10,500c0,270.6,219.4,490,490,490c270.6,0,490-219.4,490-490C990,229.4,770.6,10,500,10z M710.1,622.4c-14,29.1-29,60.4-29,60.4c69.4,28.7,33.3,82.7-22,94.7c-54.9,11.9-101.7,7.8-159.2-11.8c-57.4,19.6-104.3,23.8-159.2,11.8c-55.3-12.1-91.5-66-21.8-94.7c0,0-15.1-31.3-29.1-60.4c-32.9,38.8-63.6,32.5-62.3,2.9c0.5-13.3,7.8-43.8,13.5-60.6c13.5-39.7,35.8-83.3,39.3-103.4c-0.1-1.7-0.5-3.3-0.5-5c0-132.7,79.7-240.3,219.5-240.3h0.6h0.6c140,0,219.6,107.6,219.6,240.3c0,1.6-0.4,3.2-0.5,4.9c3.5,20.1,25.8,63.8,39.4,103.6c5.6,16.8,13,47.3,13.4,60.6C773.8,654.8,743.2,661.2,710.1,622.4z"/></g>
</svg>